<svg width="37.262695" height="45.430664" viewBox="0 0 37.2627 45.4307" fill="none" xmlns="http://www.w3.org/2000/svg" xmlns:xlink="http://www.w3.org/1999/xlink">
	<desc>
			Created with Pixso.
	</desc>
	<defs/>
	<path id="image 64 (Traced)" d="M7.13 0.14C6.3 0.43 5.69 1.06 5.44 1.89C5.37 2.13 5.31 2.68 5.31 3.18L5.31 4.05L3.65 4.08C1.74 4.11 1.46 4.19 0.79 4.86C0.05 5.59 -0.13 6.46 0.07 8.34C0.41 11.57 1.51 14.06 3.37 15.82C4.34 16.74 5.53 17.45 6.65 17.78C7.01 17.89 7.07 17.95 7.3 18.42C8.03 19.9 9.26 21.71 10.46 23.04C11.14 23.8 12.44 24.96 13.43 25.7C14.33 26.36 14.57 26.6 14.82 27.12C15.03 27.53 15.03 27.61 15.06 30.3L15.09 33.05L14.42 33.38C13.36 33.9 12.71 34.78 12.49 35.95L12.39 36.53L11.62 36.57C10.7 36.61 10.19 36.82 9.66 37.35C8.92 38.09 8.91 38.13 8.88 41.67L8.85 44.79L9.12 45.08L9.38 45.38L18.57 45.4L27.76 45.43L28.05 45.17L28.35 44.91L28.35 41.72C28.35 38.66 28.34 38.53 28.15 38.13C28.05 37.9 27.8 37.55 27.59 37.35C27.06 36.82 26.55 36.61 25.63 36.57L24.88 36.53L24.77 35.94C24.54 34.76 23.84 33.85 22.73 33.33L22.17 33.06L22.19 30.3C22.22 27.61 22.23 27.53 22.43 27.12C22.69 26.6 22.92 26.36 23.82 25.7C26.4 23.78 28.43 21.41 29.83 18.65C30.19 17.94 30.23 17.9 30.61 17.78C31.74 17.44 32.99 16.69 33.92 15.79C35.77 14 36.85 11.54 37.18 8.34C37.38 6.46 37.2 5.59 36.47 4.86C35.8 4.19 35.51 4.11 33.61 4.08L31.96 4.05L31.92 3.01C31.9 2.2 31.85 1.89 31.7 1.56C31.46 1.04 30.89 0.46 30.36 0.21L29.94 0.02L18.76 0C8.33 -0.02 7.55 -0.01 7.13 0.14ZM29.87 2.04L30.12 2.29L30.12 6.97C30.12 12.11 30.1 12.32 29.54 14.44C29.07 16.19 28.17 18.21 27.21 19.64C26.1 21.3 24.44 23.02 22.71 24.31C21.63 25.11 21.26 25.5 20.9 26.22C20.43 27.14 20.4 27.45 20.4 30.93L20.4 34.15L20.65 34.42C20.83 34.62 21.01 34.71 21.42 34.78C22.28 34.93 22.89 35.47 23.02 36.21L23.08 36.55L18.63 36.55L14.17 36.55L14.23 36.21C14.36 35.48 15.01 34.89 15.79 34.8C16.12 34.76 16.34 34.67 16.53 34.5L16.81 34.25L16.83 31C16.86 27.47 16.83 27.16 16.36 26.23C15.99 25.5 15.63 25.11 14.55 24.31C12.82 23.02 11.15 21.29 10.04 19.64C9.1 18.23 8.17 16.15 7.72 14.45C7.15 12.32 7.14 12.11 7.13 6.98C7.13 2.43 7.14 2.3 7.31 2.11C7.41 2 7.57 1.88 7.66 1.84C7.76 1.8 12.74 1.77 18.74 1.78L29.63 1.8L29.87 2.04ZM5.31 8.22C5.31 11.4 5.51 13.25 6.03 15.01C6.13 15.34 6.19 15.63 6.17 15.66C6.09 15.74 4.79 14.78 4.32 14.29C2.76 12.66 1.85 10.13 1.82 7.33C1.81 6.5 1.83 6.37 1.98 6.19C2.26 5.88 2.43 5.85 3.91 5.84L5.31 5.84L5.31 8.22ZM35.2 6.13C35.44 6.37 35.45 6.4 35.43 7.33C35.4 10.13 34.49 12.66 32.93 14.29C32.46 14.78 31.16 15.74 31.08 15.66C31.06 15.63 31.12 15.34 31.22 15.01C31.74 13.25 31.94 11.4 31.94 8.21L31.94 5.82L33.45 5.85L34.95 5.88L35.2 6.13ZM26.32 38.61L26.57 38.86L26.6 41.25L26.62 43.65L18.63 43.65L10.63 43.65L10.66 41.26C10.68 39.02 10.69 38.86 10.86 38.68C10.96 38.57 11.12 38.45 11.21 38.41C11.31 38.37 14.7 38.34 18.74 38.35L26.08 38.37L26.32 38.61ZM14.76 40.18C14.48 40.3 14.19 40.71 14.19 41C14.19 41.15 14.29 41.36 14.45 41.54L14.71 41.83L16.79 41.86L18.88 41.88L19.17 41.62C19.42 41.4 19.47 41.3 19.47 40.99C19.47 40.68 19.42 40.57 19.18 40.35L18.89 40.1L16.92 40.1C15.83 40.11 14.86 40.14 14.76 40.18ZM21.86 40.18C21.58 40.3 21.29 40.71 21.29 41C21.29 41.35 21.7 41.78 22.1 41.84C22.37 41.88 22.47 41.85 22.72 41.63C22.97 41.4 23.02 41.3 23.02 40.99C23.02 40.68 22.97 40.57 22.73 40.35C22.44 40.09 22.2 40.05 21.86 40.18Z" fill="#FFFFFF" fill-opacity="1.000000" fill-rule="evenodd"/>
	<path id="Subtract" d="M17.0264 7.4353C17.8944 5.64844 17.9954 5.50342 18.4623 5.37292C18.5979 5.33496 19.0011 5.42432 19.1727 5.5304C19.2249 5.56274 19.6838 6.42102 20.1929 7.43799C21.0187 9.08826 21.1448 9.29224 21.3656 9.33618C21.502 9.36316 22.3522 9.48914 23.2554 9.61597C24.1584 9.7428 25.0294 9.9043 25.1908 9.97485C25.5242 10.1207 25.7491 10.5498 25.6804 10.9091C25.6522 11.0569 25.1035 11.6718 24.1532 12.6208L22.67 14.1021L23.0101 16.0739C23.1971 17.1583 23.3273 18.1388 23.2991 18.2529C23.2711 18.3669 23.1517 18.5566 23.0339 18.6744C22.6453 19.0631 22.3489 18.9835 20.3794 17.9624L18.5925 17.036L16.8412 17.9624C15.0515 18.9089 14.7043 19.0215 14.2772 18.7928C14.1786 18.7401 14.0443 18.5684 13.9786 18.4113C13.8721 18.1565 13.8961 17.9088 14.2012 16.1184L14.5432 14.1113L13.041 12.616C11.6266 11.2079 11.5389 11.101 11.5389 10.7854C11.5389 10.339 11.754 10.0342 12.1478 9.92175C12.3256 9.87109 13.2833 9.71423 14.2762 9.573C15.2692 9.43188 16.0951 9.30286 16.1117 9.28613C16.1284 9.26953 16.54 8.43665 17.0264 7.4353ZM20.0375 10.8282C19.915 10.7408 19.5569 10.1675 19.2386 9.54919C18.9214 8.93274 18.6328 8.39978 18.5973 8.36475C18.5619 8.32971 18.2682 8.84778 17.9445 9.51599C17.6208 10.1841 17.2705 10.7859 17.1658 10.8533C17.061 10.9207 16.3988 11.0592 15.6943 11.1613C14.9897 11.2633 14.3983 11.3618 14.38 11.3801C14.3616 11.3986 14.7537 11.8074 15.2513 12.2887C15.749 12.77 16.2097 13.2899 16.2751 13.4443C16.3792 13.6897 16.3665 13.8823 16.1743 14.9779C16.0533 15.6671 15.9545 16.2725 15.9545 16.3231C15.9545 16.3738 16.4886 16.1331 17.1416 15.7881C17.7946 15.4431 18.4402 15.1609 18.5764 15.1609C18.7126 15.1609 19.3567 15.4396 20.0078 15.7802C20.9482 16.2722 21.1913 16.368 21.1908 16.2461C21.1906 16.1619 21.1108 15.6335 21.0139 15.0721C20.8654 14.2125 20.7795 13.826 20.8866 13.5035C20.9915 13.1876 21.2816 12.9332 21.8793 12.356C22.4529 11.8019 22.8745 11.3477 22.8162 11.3463C22.2386 11.3344 20.2189 10.9576 20.0375 10.8282Z" clip-rule="evenodd" fill="#DB3138" fill-opacity="1.000000" fill-rule="evenodd"/>
	<circle id="Ellipse 1" cx="22.278931" cy="41.078979" r="0.976368" fill="#DB3138" fill-opacity="1.000000"/>
</svg>
