<svg width="70.000000" height="45.186279" viewBox="0 0 70 45.1863" fill="none" xmlns="http://www.w3.org/2000/svg" xmlns:xlink="http://www.w3.org/1999/xlink">
	<desc>
			Created with Pixso.
	</desc>
	<defs/>
	<path id="image 66 (Traced)" d="M15 0.34C14.81 0.53 14.65 0.78 14.65 0.89C14.65 1.06 14.23 1.11 12.29 1.15C9.63 1.22 9.03 1.37 7.74 2.32C6.34 3.35 6.2 3.66 2.93 13.5C0.1 21.97 -0.06 22.54 0.01 23.29C0.15 24.84 1.02 26.11 2.36 26.73C2.95 27.01 3.28 27.03 6.72 27.08C10.67 27.12 10.98 27.08 11.18 26.44C11.22 26.3 11.67 23.05 12.18 19.22C12.69 15.39 13.19 12.05 13.29 11.81C13.4 11.56 13.73 11.14 14.03 10.87L14.58 10.39L14.68 12.99C14.84 17.41 15.31 23.07 15.72 25.59C15.81 26.13 15.81 26.13 16.36 26.05C18.2 25.78 18.06 25.84 17.98 25.43C17.67 23.91 17.14 17.7 16.97 13.58L16.87 11.29L18.63 11.29L20.39 11.29L20.56 11.83C20.79 12.6 21.6 13.47 22.5 13.91C23.37 14.34 23.69 14.7 23.69 15.27C23.69 15.79 23.19 16.28 22.36 16.59C21.54 16.88 20.61 17.76 20.27 18.56C19.98 19.22 15.96 37.23 15.83 38.43C15.51 41.39 17.73 44.4 20.69 45.02C21.75 45.24 43.71 45.24 44.75 45.01C47.74 44.38 49.94 41.4 49.62 38.43C49.44 36.79 45.43 19.15 45.06 18.39C44.65 17.53 43.93 16.89 43.03 16.56C41.91 16.16 41.45 15.32 41.96 14.59C42.08 14.43 42.52 14.12 42.95 13.91C44.23 13.29 45.15 11.92 45.15 10.64C45.15 10.3 45.22 10.16 45.44 10.08C45.61 10.03 46.95 9.27 48.42 8.38L51.09 6.77L60.2 6.77L69.3 6.77L69.65 6.43C69.99 6.08 70 6.06 70 3.38C70 0.71 69.99 0.69 69.65 0.34L69.3 0L57.01 0L44.71 0L44.36 0.34C44.17 0.53 44.02 0.79 44.02 0.91C44.02 1.1 42.82 1.12 32.72 1.12C22.63 1.12 21.43 1.1 21.43 0.91C21.43 0.79 21.27 0.53 21.08 0.34C20.74 0 20.71 0 18.04 0C15.37 0 15.34 0 15 0.34ZM19.17 5.64L19.17 9.03L18.04 9.03L16.91 9.03L16.91 5.64L16.91 2.25L18.04 2.25L19.17 2.25L19.17 5.64ZM60.96 3.38L60.96 4.51L55.72 4.51L50.48 4.51L48.38 5.78L46.28 7.04L46.28 4.65L46.28 2.25L53.62 2.25L60.96 2.25L60.96 3.38ZM67.74 3.38L67.74 4.51L65.48 4.51L63.22 4.51L63.22 3.38L63.22 2.25L65.48 2.25L67.74 2.25L67.74 3.38ZM14.65 5.69L14.65 7.99L13.84 8.33C12.87 8.73 11.74 9.8 11.3 10.74C11.04 11.31 10.92 11.41 10.46 11.5C9.01 11.77 7.16 13.16 6.4 14.54C6.14 15.03 5.63 16.78 4.83 19.93C4.19 22.49 3.63 24.62 3.58 24.67C3.54 24.71 3.34 24.68 3.15 24.59C2.71 24.39 2.23 23.63 2.23 23.15C2.23 22.68 7.94 5.56 8.29 4.99C8.62 4.44 9.4 3.83 10.1 3.58C10.44 3.46 11.33 3.39 12.64 3.39L14.65 3.38L14.65 5.69ZM22.56 4.51L22.56 5.64L23.69 5.64L24.82 5.64L24.82 4.51L24.82 3.38L25.95 3.38L27.08 3.38L27.08 4.51L27.08 5.64L28.2 5.64L29.33 5.64L29.33 4.51L29.33 3.38L30.46 3.38L31.59 3.38L31.59 4.51L31.59 5.64L32.72 5.64L33.85 5.64L33.85 4.51L33.85 3.38L34.98 3.38L36.11 3.38L36.11 4.51L36.11 5.64L37.24 5.64L38.37 5.64L38.37 4.51L38.37 3.38L39.5 3.38L40.63 3.38L40.63 4.51L40.63 5.64L41.76 5.64L42.89 5.64L42.89 4.51L42.89 3.38L43.45 3.38L44.02 3.38L44.02 5.64L44.02 7.9L32.72 7.9L21.43 7.9L21.43 5.64L21.43 3.38L21.99 3.38L22.56 3.38L22.56 4.51ZM42.89 10.56C42.89 11.14 42.44 11.63 41.47 12.15C39.83 13.02 39.12 14.71 39.71 16.36C40.05 17.34 40.58 17.89 41.68 18.42C42.85 18.98 43.13 19.24 43.26 19.88L43.35 20.33L32.72 20.33L22.1 20.33L22.19 19.88C22.31 19.24 22.6 18.98 23.76 18.42C24.86 17.89 25.39 17.34 25.74 16.36C26.32 14.71 25.61 13.02 23.97 12.15C23 11.63 22.56 11.14 22.56 10.56L22.56 10.16L32.72 10.16L42.89 10.16L42.89 10.56ZM10.56 14.08C10.56 14.21 10.24 16.68 9.85 19.55C9.46 22.42 9.15 24.79 9.15 24.81C9.15 24.83 8.42 24.84 7.54 24.84L5.93 24.84L7.02 20.49C7.63 18.1 8.2 15.99 8.3 15.8C8.67 15.12 9.08 14.65 9.7 14.25C10.42 13.77 10.56 13.74 10.56 14.08ZM43.92 22.9C43.97 23.08 44.77 26.68 45.72 30.91C47.57 39.26 47.6 39.44 46.98 40.67C46.56 41.51 46.06 42.02 45.22 42.47L44.51 42.84L32.72 42.84L20.93 42.84L20.35 42.53C19.44 42.05 18.9 41.53 18.51 40.76C17.84 39.43 17.85 39.34 19.73 30.91C20.67 26.68 21.48 23.08 21.52 22.9L21.6 22.58L32.72 22.58L43.85 22.58L43.92 22.9Z" fill="#FFFFFF" fill-opacity="1.000000" fill-rule="evenodd"/>
</svg>
